<svg id="visual" viewBox="0 0 960 540" width="960" height="540" xmlns="http://www.w3.org/2000/svg" xmlns:xlink="http://www.w3.org/1999/xlink" version="1.1"><rect x="0" y="0" width="960" height="540" fill="#fff"></rect><defs><linearGradient id="grad1_0" x1="43.8%" y1="0%" x2="100%" y2="100%"><stop offset="14.444444444444446%" stop-color="#f7770f" stop-opacity="1"></stop><stop offset="85.55555555555554%" stop-color="#f7770f" stop-opacity="1"></stop></linearGradient></defs><defs><linearGradient id="grad1_1" x1="43.8%" y1="0%" x2="100%" y2="100%"><stop offset="14.444444444444446%" stop-color="#f7770f" stop-opacity="1"></stop><stop offset="85.55555555555554%" stop-color="#ffa567" stop-opacity="1"></stop></linearGradient></defs><defs><linearGradient id="grad1_2" x1="43.8%" y1="0%" x2="100%" y2="100%"><stop offset="14.444444444444446%" stop-color="#ffd2b2" stop-opacity="1"></stop><stop offset="85.55555555555554%" stop-color="#ffa567" stop-opacity="1"></stop></linearGradient></defs><defs><linearGradient id="grad1_3" x1="43.8%" y1="0%" x2="100%" y2="100%"><stop offset="14.444444444444446%" stop-color="#ffd2b2" stop-opacity="1"></stop><stop offset="85.55555555555554%" stop-color="#ffffff" stop-opacity="1"></stop></linearGradient></defs><defs><linearGradient id="grad2_0" x1="0%" y1="0%" x2="56.3%" y2="100%"><stop offset="14.444444444444446%" stop-color="#f7770f" stop-opacity="1"></stop><stop offset="85.55555555555554%" stop-color="#f7770f" stop-opacity="1"></stop></linearGradient></defs><defs><linearGradient id="grad2_1" x1="0%" y1="0%" x2="56.3%" y2="100%"><stop offset="14.444444444444446%" stop-color="#ffa567" stop-opacity="1"></stop><stop offset="85.55555555555554%" stop-color="#f7770f" stop-opacity="1"></stop></linearGradient></defs><defs><linearGradient id="grad2_2" x1="0%" y1="0%" x2="56.3%" y2="100%"><stop offset="14.444444444444446%" stop-color="#ffa567" stop-opacity="1"></stop><stop offset="85.55555555555554%" stop-color="#ffd2b2" stop-opacity="1"></stop></linearGradient></defs><defs><linearGradient id="grad2_3" x1="0%" y1="0%" x2="56.3%" y2="100%"><stop offset="14.444444444444446%" stop-color="#ffffff" stop-opacity="1"></stop><stop offset="85.55555555555554%" stop-color="#ffd2b2" stop-opacity="1"></stop></linearGradient></defs><g transform="translate(960, 0)"><path d="M0 378C-34.5 379 -69.1 380 -97.8 365.1C-126.6 350.3 -149.6 319.6 -170.5 295.3C-191.4 271 -210.3 253.1 -236.2 236.2C-262.1 219.3 -295 203.3 -308.3 178C-321.6 152.7 -315.2 117.9 -323.6 86.7C-331.9 55.5 -355 27.7 -378 0L0 0Z" fill="#ffe8d8"></path><path d="M0 283.5C-25.9 284.2 -51.8 285 -73.4 273.8C-94.9 262.7 -112.2 239.7 -127.9 221.5C-143.6 203.3 -157.7 189.8 -177.1 177.1C-196.6 164.4 -221.3 152.5 -231.2 133.5C-241.2 114.5 -236.4 88.5 -242.7 65C-248.9 41.6 -266.2 20.8 -283.5 0L0 0Z" fill="#ffbb8c"></path><path d="M0 189C-17.3 189.5 -34.5 190 -48.9 182.6C-63.3 175.1 -74.8 159.8 -85.2 147.7C-95.7 135.5 -105.1 126.5 -118.1 118.1C-131 109.6 -147.5 101.7 -154.2 89C-160.8 76.3 -157.6 59 -161.8 43.4C-166 27.7 -177.5 13.9 -189 0L0 0Z" fill="#ff8e41"></path><path d="M0 94.5C-8.6 94.7 -17.3 95 -24.5 91.3C-31.6 87.6 -37.4 79.9 -42.6 73.8C-47.9 67.8 -52.6 63.3 -59 59C-65.5 54.8 -73.8 50.8 -77.1 44.5C-80.4 38.2 -78.8 29.5 -80.9 21.7C-83 13.9 -88.7 6.9 -94.5 0L0 0Z" fill="#f7770f"></path></g><g transform="translate(0, 540)"><path d="M0 -378C35.3 -380.4 70.6 -382.7 97.8 -365.1C125.1 -347.5 144.3 -310 164.5 -284.9C184.7 -259.9 205.8 -247.3 234.1 -234.1C262.3 -220.8 297.8 -206.7 316.1 -182.5C334.4 -158.3 335.5 -124 342.9 -91.9C350.4 -59.8 364.2 -29.9 378 0L0 0Z" fill="#ffe8d8"></path><path d="M0 -283.5C26.5 -285.3 52.9 -287 73.4 -273.8C93.8 -260.6 108.2 -232.5 123.4 -213.7C138.5 -194.9 154.3 -185.5 175.5 -175.5C196.8 -165.6 223.4 -155 237.1 -136.9C250.8 -118.7 251.6 -93 257.2 -68.9C262.8 -44.8 273.1 -22.4 283.5 0L0 0Z" fill="#ffbb8c"></path><path d="M0 -189C17.6 -190.2 35.3 -191.4 48.9 -182.6C62.5 -173.8 72.2 -155 82.2 -142.5C92.3 -129.9 102.9 -123.7 117 -117C131.2 -110.4 148.9 -103.3 158 -91.3C167.2 -79.2 167.7 -62 171.5 -45.9C175.2 -29.9 182.1 -14.9 189 0L0 0Z" fill="#ff8e41"></path><path d="M0 -94.5C8.8 -95.1 17.6 -95.7 24.5 -91.3C31.3 -86.9 36.1 -77.5 41.1 -71.2C46.2 -65 51.4 -61.8 58.5 -58.5C65.6 -55.2 74.5 -51.7 79 -45.6C83.6 -39.6 83.9 -31 85.7 -23C87.6 -14.9 91 -7.5 94.5 0L0 0Z" fill="#f7770f"></path></g></svg>