<svg id="visual" viewBox="0 0 900 1500" width="900" height="1500" xmlns="http://www.w3.org/2000/svg" xmlns:xlink="http://www.w3.org/1999/xlink" version="1.1"><rect x="0" y="0" width="900" height="1500" fill="#fff"></rect><defs><linearGradient id="grad1_0" x1="0%" y1="0%" x2="100%" y2="100%"><stop offset="30%" stop-color="#f7770f" stop-opacity="1"></stop><stop offset="70%" stop-color="#f7770f" stop-opacity="1"></stop></linearGradient></defs><defs><linearGradient id="grad1_1" x1="0%" y1="0%" x2="100%" y2="100%"><stop offset="30%" stop-color="#f7770f" stop-opacity="1"></stop><stop offset="70%" stop-color="#ffa567" stop-opacity="1"></stop></linearGradient></defs><defs><linearGradient id="grad1_2" x1="0%" y1="0%" x2="100%" y2="100%"><stop offset="30%" stop-color="#ffd2b2" stop-opacity="1"></stop><stop offset="70%" stop-color="#ffa567" stop-opacity="1"></stop></linearGradient></defs><defs><linearGradient id="grad1_3" x1="0%" y1="0%" x2="100%" y2="100%"><stop offset="30%" stop-color="#ffd2b2" stop-opacity="1"></stop><stop offset="70%" stop-color="#ffffff" stop-opacity="1"></stop></linearGradient></defs><defs><linearGradient id="grad2_0" x1="0%" y1="0%" x2="100%" y2="100%"><stop offset="30%" stop-color="#f7770f" stop-opacity="1"></stop><stop offset="70%" stop-color="#f7770f" stop-opacity="1"></stop></linearGradient></defs><defs><linearGradient id="grad2_1" x1="0%" y1="0%" x2="100%" y2="100%"><stop offset="30%" stop-color="#ffa567" stop-opacity="1"></stop><stop offset="70%" stop-color="#f7770f" stop-opacity="1"></stop></linearGradient></defs><defs><linearGradient id="grad2_2" x1="0%" y1="0%" x2="100%" y2="100%"><stop offset="30%" stop-color="#ffa567" stop-opacity="1"></stop><stop offset="70%" stop-color="#ffd2b2" stop-opacity="1"></stop></linearGradient></defs><defs><linearGradient id="grad2_3" x1="0%" y1="0%" x2="100%" y2="100%"><stop offset="30%" stop-color="#ffffff" stop-opacity="1"></stop><stop offset="70%" stop-color="#ffd2b2" stop-opacity="1"></stop></linearGradient></defs><g transform="translate(900, 0)"><path d="M0 830.9C-59.9 776 -119.7 721.1 -187.1 698.4C-254.5 675.6 -329.4 685.1 -376 651.3C-422.6 617.4 -440.8 540.2 -499.9 499.9C-559.1 459.6 -659.2 456.3 -717.1 414C-775 371.7 -790.7 290.5 -802.6 215.1C-814.5 139.6 -822.7 69.8 -830.9 0L0 0Z" fill="#ffe8d8"></path><path d="M0 623.2C-44.9 582 -89.8 540.8 -140.3 523.8C-190.9 506.7 -247.1 513.8 -282 488.4C-316.9 463 -330.6 405.2 -374.9 374.9C-419.3 344.7 -494.4 342.2 -537.8 310.5C-581.2 278.8 -593 217.9 -601.9 161.3C-610.9 104.7 -617 52.3 -623.2 0L0 0Z" fill="#ffbb8c"></path><path d="M0 415.5C-29.9 388 -59.9 360.5 -93.6 349.2C-127.3 337.8 -164.7 342.6 -188 325.6C-211.3 308.7 -220.4 270.1 -250 250C-279.5 229.8 -329.6 228.1 -358.5 207C-387.5 185.9 -395.3 145.3 -401.3 107.5C-407.3 69.8 -411.4 34.9 -415.5 0L0 0Z" fill="#ff8e41"></path><path d="M0 207.7C-15 194 -29.9 180.3 -46.8 174.6C-63.6 168.9 -82.4 171.3 -94 162.8C-105.6 154.3 -110.2 135.1 -125 125C-139.8 114.9 -164.8 114.1 -179.3 103.5C-193.7 92.9 -197.7 72.6 -200.6 53.8C-203.6 34.9 -205.7 17.4 -207.7 0L0 0Z" fill="#f7770f"></path></g><g transform="translate(0, 1500)"><path d="M0 -830.9C60.1 -785.3 120.3 -739.8 196.2 -732.2C272.1 -724.6 363.7 -754.9 415.5 -719.6C467.2 -684.3 479 -583.3 522.6 -522.6C566.1 -461.8 641.3 -441.2 680.7 -393C720.1 -344.8 723.7 -269.1 742.8 -199C761.9 -128.9 796.4 -64.5 830.9 0L0 0Z" fill="#ffe8d8"></path><path d="M0 -623.2C45.1 -589 90.2 -554.8 147.1 -549.1C204.1 -543.4 272.8 -566.2 311.6 -539.7C350.4 -513.2 359.3 -437.5 391.9 -391.9C424.6 -346.3 481 -330.9 510.5 -294.8C540.1 -258.6 542.8 -201.8 557.1 -149.3C571.4 -96.7 597.3 -48.4 623.2 0L0 0Z" fill="#ffbb8c"></path><path d="M0 -415.5C30.1 -392.7 60.1 -369.9 98.1 -366.1C136 -362.3 181.9 -377.4 207.7 -359.8C233.6 -342.1 239.5 -291.7 261.3 -261.3C283 -230.9 320.6 -220.6 340.3 -196.5C360.1 -172.4 361.9 -134.6 371.4 -99.5C380.9 -64.5 398.2 -32.2 415.5 0L0 0Z" fill="#ff8e41"></path><path d="M0 -207.7C15 -196.3 30.1 -184.9 49 -183C68 -181.1 90.9 -188.7 103.9 -179.9C116.8 -171.1 119.8 -145.8 130.6 -130.6C141.5 -115.4 160.3 -110.3 170.2 -98.3C180 -86.2 180.9 -67.3 185.7 -49.8C190.5 -32.2 199.1 -16.1 207.7 0L0 0Z" fill="#f7770f"></path></g></svg>