<svg id="visual" viewBox="0 0 1900 300" width="1900" height="300" xmlns="http://www.w3.org/2000/svg" xmlns:xlink="http://www.w3.org/1999/xlink" version="1.1"><rect x="0" y="0" width="1900" height="300" fill="#ffffff"></rect><path d="M0 91L24.3 85.7C48.7 80.3 97.3 69.7 146 70.8C194.7 72 243.3 85 292 92.8C340.7 100.7 389.3 103.3 438.2 100.2C487 97 536 88 584.8 78.5C633.7 69 682.3 59 731 56.7C779.7 54.3 828.3 59.7 877 59.3C925.7 59 974.3 53 1023 59.5C1071.7 66 1120.3 85 1169 86C1217.7 87 1266.3 70 1315.2 64.7C1364 59.3 1413 65.7 1461.8 71.7C1510.7 77.7 1559.3 83.3 1608 85.3C1656.7 87.3 1705.3 85.7 1754 79.2C1802.7 72.7 1851.3 61.3 1875.7 55.7L1900 50L1900 301L1875.7 301C1851.3 301 1802.7 301 1754 301C1705.3 301 1656.7 301 1608 301C1559.3 301 1510.7 301 1461.8 301C1413 301 1364 301 1315.2 301C1266.3 301 1217.7 301 1169 301C1120.3 301 1071.7 301 1023 301C974.3 301 925.7 301 877 301C828.3 301 779.7 301 731 301C682.3 301 633.7 301 584.8 301C536 301 487 301 438.2 301C389.3 301 340.7 301 292 301C243.3 301 194.7 301 146 301C97.3 301 48.7 301 24.3 301L0 301Z" fill="#ffefe3"></path><path d="M0 144L24.3 136.2C48.7 128.3 97.3 112.7 146 104.8C194.7 97 243.3 97 292 96.5C340.7 96 389.3 95 438.2 95.7C487 96.3 536 98.7 584.8 101.5C633.7 104.3 682.3 107.7 731 106.7C779.7 105.7 828.3 100.3 877 106.3C925.7 112.3 974.3 129.7 1023 137.7C1071.7 145.7 1120.3 144.3 1169 144.8C1217.7 145.3 1266.3 147.7 1315.2 141.8C1364 136 1413 122 1461.8 115.2C1510.7 108.3 1559.3 108.7 1608 112.7C1656.7 116.7 1705.3 124.3 1754 127.3C1802.7 130.3 1851.3 128.7 1875.7 127.8L1900 127L1900 301L1875.7 301C1851.3 301 1802.7 301 1754 301C1705.3 301 1656.7 301 1608 301C1559.3 301 1510.7 301 1461.8 301C1413 301 1364 301 1315.2 301C1266.3 301 1217.7 301 1169 301C1120.3 301 1071.7 301 1023 301C974.3 301 925.7 301 877 301C828.3 301 779.7 301 731 301C682.3 301 633.7 301 584.8 301C536 301 487 301 438.2 301C389.3 301 340.7 301 292 301C243.3 301 194.7 301 146 301C97.3 301 48.7 301 24.3 301L0 301Z" fill="#ffd2ae"></path><path d="M0 152L24.3 156.8C48.7 161.7 97.3 171.3 146 174.2C194.7 177 243.3 173 292 170.7C340.7 168.3 389.3 167.7 438.2 163.3C487 159 536 151 584.8 152.3C633.7 153.7 682.3 164.3 731 171.2C779.7 178 828.3 181 877 183.5C925.7 186 974.3 188 1023 182.3C1071.7 176.7 1120.3 163.3 1169 154.8C1217.7 146.3 1266.3 142.7 1315.2 142.3C1364 142 1413 145 1461.8 151C1510.7 157 1559.3 166 1608 167.8C1656.7 169.7 1705.3 164.3 1754 166.5C1802.7 168.7 1851.3 178.3 1875.7 183.2L1900 188L1900 301L1875.7 301C1851.3 301 1802.7 301 1754 301C1705.3 301 1656.7 301 1608 301C1559.3 301 1510.7 301 1461.8 301C1413 301 1364 301 1315.2 301C1266.3 301 1217.7 301 1169 301C1120.3 301 1071.7 301 1023 301C974.3 301 925.7 301 877 301C828.3 301 779.7 301 731 301C682.3 301 633.7 301 584.8 301C536 301 487 301 438.2 301C389.3 301 340.7 301 292 301C243.3 301 194.7 301 146 301C97.3 301 48.7 301 24.3 301L0 301Z" fill="#ffb57c"></path><path d="M0 208L24.3 207.8C48.7 207.7 97.3 207.3 146 203.5C194.7 199.7 243.3 192.3 292 193.7C340.7 195 389.3 205 438.2 210.2C487 215.3 536 215.7 584.8 213.7C633.7 211.7 682.3 207.3 731 203.2C779.7 199 828.3 195 877 192.5C925.7 190 974.3 189 1023 191C1071.7 193 1120.3 198 1169 202C1217.7 206 1266.3 209 1315.2 207.5C1364 206 1413 200 1461.8 196.2C1510.7 192.3 1559.3 190.7 1608 195C1656.7 199.3 1705.3 209.7 1754 209.7C1802.7 209.7 1851.3 199.3 1875.7 194.2L1900 189L1900 301L1875.7 301C1851.3 301 1802.7 301 1754 301C1705.3 301 1656.7 301 1608 301C1559.3 301 1510.7 301 1461.8 301C1413 301 1364 301 1315.2 301C1266.3 301 1217.7 301 1169 301C1120.3 301 1071.7 301 1023 301C974.3 301 925.7 301 877 301C828.3 301 779.7 301 731 301C682.3 301 633.7 301 584.8 301C536 301 487 301 438.2 301C389.3 301 340.7 301 292 301C243.3 301 194.7 301 146 301C97.3 301 48.7 301 24.3 301L0 301Z" fill="#fc974b"></path><path d="M0 246L24.3 243.8C48.7 241.7 97.3 237.3 146 237C194.7 236.7 243.3 240.3 292 246.2C340.7 252 389.3 260 438.2 263.2C487 266.3 536 264.7 584.8 259.5C633.7 254.3 682.3 245.7 731 246C779.7 246.3 828.3 255.7 877 259.7C925.7 263.7 974.3 262.3 1023 256.8C1071.7 251.3 1120.3 241.7 1169 241.3C1217.7 241 1266.3 250 1315.2 250.7C1364 251.3 1413 243.7 1461.8 245.3C1510.7 247 1559.3 258 1608 258.7C1656.7 259.3 1705.3 249.7 1754 247.3C1802.7 245 1851.3 250 1875.7 252.5L1900 255L1900 301L1875.7 301C1851.3 301 1802.7 301 1754 301C1705.3 301 1656.7 301 1608 301C1559.3 301 1510.7 301 1461.8 301C1413 301 1364 301 1315.2 301C1266.3 301 1217.7 301 1169 301C1120.3 301 1071.7 301 1023 301C974.3 301 925.7 301 877 301C828.3 301 779.7 301 731 301C682.3 301 633.7 301 584.8 301C536 301 487 301 438.2 301C389.3 301 340.7 301 292 301C243.3 301 194.7 301 146 301C97.3 301 48.7 301 24.3 301L0 301Z" fill="#f7770f"></path></svg>