<svg id="visual" viewBox="0 0 900 300" width="900" height="300" xmlns="http://www.w3.org/2000/svg" xmlns:xlink="http://www.w3.org/1999/xlink" version="1.1"><rect x="0" y="0" width="900" height="300" fill="#808080"></rect><path d="M0 78L21.5 88.7C43 99.3 86 120.7 128.8 117.2C171.7 113.7 214.3 85.3 257.2 74.2C300 63 343 69 385.8 81.5C428.7 94 471.3 113 514.2 111.3C557 109.7 600 87.3 642.8 84C685.7 80.7 728.3 96.3 771.2 98.2C814 100 857 88 878.5 82L900 76L900 301L878.5 301C857 301 814 301 771.2 301C728.3 301 685.7 301 642.8 301C600 301 557 301 514.2 301C471.3 301 428.7 301 385.8 301C343 301 300 301 257.2 301C214.3 301 171.7 301 128.8 301C86 301 43 301 21.5 301L0 301Z" fill="#808080"></path><path d="M0 168L21.5 159.3C43 150.7 86 133.3 128.8 121.3C171.7 109.3 214.3 102.7 257.2 102.2C300 101.7 343 107.3 385.8 118.2C428.7 129 471.3 145 514.2 143.3C557 141.7 600 122.3 642.8 111.3C685.7 100.3 728.3 97.7 771.2 104.7C814 111.7 857 128.3 878.5 136.7L900 145L900 301L878.5 301C857 301 814 301 771.2 301C728.3 301 685.7 301 642.8 301C600 301 557 301 514.2 301C471.3 301 428.7 301 385.8 301C343 301 300 301 257.2 301C214.3 301 171.7 301 128.8 301C86 301 43 301 21.5 301L0 301Z" fill="#9e9e9e"></path><path d="M0 192L21.5 189.3C43 186.7 86 181.3 128.8 179.8C171.7 178.3 214.3 180.7 257.2 181.2C300 181.7 343 180.3 385.8 177C428.7 173.7 471.3 168.3 514.2 167.3C557 166.3 600 169.7 642.8 176.5C685.7 183.3 728.3 193.7 771.2 199.8C814 206 857 208 878.5 209L900 210L900 301L878.5 301C857 301 814 301 771.2 301C728.3 301 685.7 301 642.8 301C600 301 557 301 514.2 301C471.3 301 428.7 301 385.8 301C343 301 300 301 257.2 301C214.3 301 171.7 301 128.8 301C86 301 43 301 21.5 301L0 301Z" fill="#bdbdbd"></path><path d="M0 192L21.5 196.3C43 200.7 86 209.3 128.8 208.7C171.7 208 214.3 198 257.2 193C300 188 343 188 385.8 191.5C428.7 195 471.3 202 514.2 201C557 200 600 191 642.8 186.5C685.7 182 728.3 182 771.2 187.5C814 193 857 204 878.5 209.5L900 215L900 301L878.5 301C857 301 814 301 771.2 301C728.3 301 685.7 301 642.8 301C600 301 557 301 514.2 301C471.3 301 428.7 301 385.8 301C343 301 300 301 257.2 301C214.3 301 171.7 301 128.8 301C86 301 43 301 21.5 301L0 301Z" fill="#dedede"></path><path d="M0 246L21.5 244.3C43 242.7 86 239.3 128.8 236.3C171.7 233.3 214.3 230.7 257.2 233.7C300 236.7 343 245.3 385.8 246.5C428.7 247.7 471.3 241.3 514.2 243.8C557 246.3 600 257.7 642.8 256.2C685.7 254.7 728.3 240.3 771.2 236.2C814 232 857 238 878.5 241L900 244L900 301L878.5 301C857 301 814 301 771.2 301C728.3 301 685.7 301 642.8 301C600 301 557 301 514.2 301C471.3 301 428.7 301 385.8 301C343 301 300 301 257.2 301C214.3 301 171.7 301 128.8 301C86 301 43 301 21.5 301L0 301Z" fill="#ffffff"></path></svg>