<svg id="visual" viewBox="0 0 1900 300" width="1900" height="300" xmlns="http://www.w3.org/2000/svg" xmlns:xlink="http://www.w3.org/1999/xlink" version="1.1"><rect x="0" y="0" width="1900" height="300" fill="#F7770F"></rect><path d="M0 71L21.2 75.2C42.3 79.3 84.7 87.7 126.8 90.2C169 92.7 211 89.3 253.2 84.7C295.3 80 337.7 74 380 73.3C422.3 72.7 464.7 77.3 506.8 74.3C549 71.3 591 60.7 633.2 55.2C675.3 49.7 717.7 49.3 760 50C802.3 50.7 844.7 52.3 886.8 61.2C929 70 971 86 1013.2 88.3C1055.3 90.7 1097.7 79.3 1140 74.7C1182.3 70 1224.7 72 1266.8 70.5C1309 69 1351 64 1393.2 68.7C1435.3 73.3 1477.7 87.7 1520 92.3C1562.3 97 1604.7 92 1646.8 87.8C1689 83.7 1731 80.3 1773.2 75C1815.3 69.7 1857.7 62.3 1878.8 58.7L1900 55L1900 301L1878.8 301C1857.7 301 1815.3 301 1773.2 301C1731 301 1689 301 1646.8 301C1604.7 301 1562.3 301 1520 301C1477.7 301 1435.3 301 1393.2 301C1351 301 1309 301 1266.8 301C1224.7 301 1182.3 301 1140 301C1097.7 301 1055.3 301 1013.2 301C971 301 929 301 886.8 301C844.7 301 802.3 301 760 301C717.7 301 675.3 301 633.2 301C591 301 549 301 506.8 301C464.7 301 422.3 301 380 301C337.7 301 295.3 301 253.2 301C211 301 169 301 126.8 301C84.7 301 42.3 301 21.2 301L0 301Z" fill="#f7770f"></path><path d="M0 92L21.2 96.5C42.3 101 84.7 110 126.8 116.7C169 123.3 211 127.7 253.2 130.5C295.3 133.3 337.7 134.7 380 131.5C422.3 128.3 464.7 120.7 506.8 113.3C549 106 591 99 633.2 96.8C675.3 94.7 717.7 97.3 760 103.5C802.3 109.7 844.7 119.3 886.8 122C929 124.7 971 120.3 1013.2 113.8C1055.3 107.3 1097.7 98.7 1140 102C1182.3 105.3 1224.7 120.7 1266.8 124.2C1309 127.7 1351 119.3 1393.2 116.8C1435.3 114.3 1477.7 117.7 1520 121.3C1562.3 125 1604.7 129 1646.8 123.8C1689 118.7 1731 104.3 1773.2 98.2C1815.3 92 1857.7 94 1878.8 95L1900 96L1900 301L1878.8 301C1857.7 301 1815.3 301 1773.2 301C1731 301 1689 301 1646.8 301C1604.7 301 1562.3 301 1520 301C1477.7 301 1435.3 301 1393.2 301C1351 301 1309 301 1266.8 301C1224.7 301 1182.3 301 1140 301C1097.7 301 1055.3 301 1013.2 301C971 301 929 301 886.8 301C844.7 301 802.3 301 760 301C717.7 301 675.3 301 633.2 301C591 301 549 301 506.8 301C464.7 301 422.3 301 380 301C337.7 301 295.3 301 253.2 301C211 301 169 301 126.8 301C84.7 301 42.3 301 21.2 301L0 301Z" fill="#e37a31"></path><path d="M0 134L21.2 137.5C42.3 141 84.7 148 126.8 151.3C169 154.7 211 154.3 253.2 153.3C295.3 152.3 337.7 150.7 380 152C422.3 153.3 464.7 157.7 506.8 160C549 162.3 591 162.7 633.2 158.3C675.3 154 717.7 145 760 139.3C802.3 133.7 844.7 131.3 886.8 136.5C929 141.7 971 154.3 1013.2 159.2C1055.3 164 1097.7 161 1140 154.2C1182.3 147.3 1224.7 136.7 1266.8 136.5C1309 136.3 1351 146.7 1393.2 151.8C1435.3 157 1477.7 157 1520 157.8C1562.3 158.7 1604.7 160.3 1646.8 161.2C1689 162 1731 162 1773.2 161C1815.3 160 1857.7 158 1878.8 157L1900 156L1900 301L1878.8 301C1857.7 301 1815.3 301 1773.2 301C1731 301 1689 301 1646.8 301C1604.7 301 1562.3 301 1520 301C1477.7 301 1435.3 301 1393.2 301C1351 301 1309 301 1266.8 301C1224.7 301 1182.3 301 1140 301C1097.7 301 1055.3 301 1013.2 301C971 301 929 301 886.8 301C844.7 301 802.3 301 760 301C717.7 301 675.3 301 633.2 301C591 301 549 301 506.8 301C464.7 301 422.3 301 380 301C337.7 301 295.3 301 253.2 301C211 301 169 301 126.8 301C84.7 301 42.3 301 21.2 301L0 301Z" fill="#cd7d48"></path><path d="M0 187L21.2 182.8C42.3 178.7 84.7 170.3 126.8 170.8C169 171.3 211 180.7 253.2 186.7C295.3 192.7 337.7 195.3 380 193.7C422.3 192 464.7 186 506.8 182C549 178 591 176 633.2 173.8C675.3 171.7 717.7 169.3 760 171.3C802.3 173.3 844.7 179.7 886.8 179.7C929 179.7 971 173.3 1013.2 170.8C1055.3 168.3 1097.7 169.7 1140 173.7C1182.3 177.7 1224.7 184.3 1266.8 186.7C1309 189 1351 187 1393.2 184.3C1435.3 181.7 1477.7 178.3 1520 180.3C1562.3 182.3 1604.7 189.7 1646.8 190C1689 190.3 1731 183.7 1773.2 178C1815.3 172.3 1857.7 167.7 1878.8 165.3L1900 163L1900 301L1878.8 301C1857.7 301 1815.3 301 1773.2 301C1731 301 1689 301 1646.8 301C1604.7 301 1562.3 301 1520 301C1477.7 301 1435.3 301 1393.2 301C1351 301 1309 301 1266.8 301C1224.7 301 1182.3 301 1140 301C1097.7 301 1055.3 301 1013.2 301C971 301 929 301 886.8 301C844.7 301 802.3 301 760 301C717.7 301 675.3 301 633.2 301C591 301 549 301 506.8 301C464.7 301 422.3 301 380 301C337.7 301 295.3 301 253.2 301C211 301 169 301 126.8 301C84.7 301 42.3 301 21.2 301L0 301Z" fill="#b67f5c"></path><path d="M0 227L21.2 223.3C42.3 219.7 84.7 212.3 126.8 210.7C169 209 211 213 253.2 213.5C295.3 214 337.7 211 380 213.2C422.3 215.3 464.7 222.7 506.8 226.8C549 231 591 232 633.2 227C675.3 222 717.7 211 760 210C802.3 209 844.7 218 886.8 221.5C929 225 971 223 1013.2 222.7C1055.3 222.3 1097.7 223.7 1140 226.5C1182.3 229.3 1224.7 233.7 1266.8 235.5C1309 237.3 1351 236.7 1393.2 231.7C1435.3 226.7 1477.7 217.3 1520 217.7C1562.3 218 1604.7 228 1646.8 230.2C1689 232.3 1731 226.7 1773.2 226C1815.3 225.3 1857.7 229.7 1878.8 231.8L1900 234L1900 301L1878.8 301C1857.7 301 1815.3 301 1773.2 301C1731 301 1689 301 1646.8 301C1604.7 301 1562.3 301 1520 301C1477.7 301 1435.3 301 1393.2 301C1351 301 1309 301 1266.8 301C1224.7 301 1182.3 301 1140 301C1097.7 301 1055.3 301 1013.2 301C971 301 929 301 886.8 301C844.7 301 802.3 301 760 301C717.7 301 675.3 301 633.2 301C591 301 549 301 506.8 301C464.7 301 422.3 301 380 301C337.7 301 295.3 301 253.2 301C211 301 169 301 126.8 301C84.7 301 42.3 301 21.2 301L0 301Z" fill="#9d806e"></path><path d="M0 252L21.2 255.5C42.3 259 84.7 266 126.8 267.3C169 268.7 211 264.3 253.2 259C295.3 253.7 337.7 247.3 380 248.2C422.3 249 464.7 257 506.8 258.5C549 260 591 255 633.2 252C675.3 249 717.7 248 760 251.7C802.3 255.3 844.7 263.7 886.8 265C929 266.3 971 260.7 1013.2 257.8C1055.3 255 1097.7 255 1140 257.7C1182.3 260.3 1224.7 265.7 1266.8 268.2C1309 270.7 1351 270.3 1393.2 270.7C1435.3 271 1477.7 272 1520 272.3C1562.3 272.7 1604.7 272.3 1646.8 267.8C1689 263.3 1731 254.7 1773.2 251.7C1815.3 248.7 1857.7 251.3 1878.8 252.7L1900 254L1900 301L1878.8 301C1857.7 301 1815.3 301 1773.2 301C1731 301 1689 301 1646.8 301C1604.7 301 1562.3 301 1520 301C1477.7 301 1435.3 301 1393.2 301C1351 301 1309 301 1266.8 301C1224.7 301 1182.3 301 1140 301C1097.7 301 1055.3 301 1013.2 301C971 301 929 301 886.8 301C844.7 301 802.3 301 760 301C717.7 301 675.3 301 633.2 301C591 301 549 301 506.8 301C464.7 301 422.3 301 380 301C337.7 301 295.3 301 253.2 301C211 301 169 301 126.8 301C84.7 301 42.3 301 21.2 301L0 301Z" fill="#808080"></path></svg>