<svg id="visual" viewBox="0 0 600 900" width="600" height="900" xmlns="http://www.w3.org/2000/svg" xmlns:xlink="http://www.w3.org/1999/xlink" version="1.1"><path d="M0 37L43 37L43 64L86 64L86 28L129 28L129 73L171 73L171 55L214 55L214 46L257 46L257 82L300 82L300 64L343 64L343 55L386 55L386 91L429 91L429 73L471 73L471 100L514 100L514 73L557 73L557 37L600 37L600 82L600 0L600 0L557 0L557 0L514 0L514 0L471 0L471 0L429 0L429 0L386 0L386 0L343 0L343 0L300 0L300 0L257 0L257 0L214 0L214 0L171 0L171 0L129 0L129 0L86 0L86 0L43 0L43 0L0 0Z" fill="#f7770f"></path><path d="M0 100L43 100L43 154L86 154L86 154L129 154L129 127L171 127L171 154L214 154L214 118L257 118L257 127L300 127L300 100L343 100L343 100L386 100L386 199L429 199L429 163L471 163L471 217L514 217L514 127L557 127L557 145L600 145L600 145L600 80L600 35L557 35L557 71L514 71L514 98L471 98L471 71L429 71L429 89L386 89L386 53L343 53L343 62L300 62L300 80L257 80L257 44L214 44L214 53L171 53L171 71L129 71L129 26L86 26L86 62L43 62L43 35L0 35Z" fill="#f35e44"></path><path d="M0 208L43 208L43 325L86 325L86 271L129 271L129 244L171 244L171 343L214 343L214 280L257 280L257 199L300 199L300 208L343 208L343 181L386 181L386 334L429 334L429 226L471 226L471 289L514 289L514 307L557 307L557 253L600 253L600 316L600 143L600 143L557 143L557 125L514 125L514 215L471 215L471 161L429 161L429 197L386 197L386 98L343 98L343 98L300 98L300 125L257 125L257 116L214 116L214 152L171 152L171 125L129 125L129 152L86 152L86 152L43 152L43 98L0 98Z" fill="#df5163"></path><path d="M0 280L43 280L43 370L86 370L86 334L129 334L129 271L171 271L171 370L214 370L214 316L257 316L257 280L300 280L300 271L343 271L343 253L386 253L386 388L429 388L429 262L471 262L471 316L514 316L514 361L557 361L557 316L600 316L600 370L600 314L600 251L557 251L557 305L514 305L514 287L471 287L471 224L429 224L429 332L386 332L386 179L343 179L343 206L300 206L300 197L257 197L257 278L214 278L214 341L171 341L171 242L129 242L129 269L86 269L86 323L43 323L43 206L0 206Z" fill="#c05078"></path><path d="M0 514L43 514L43 523L86 523L86 487L129 487L129 586L171 586L171 613L214 613L214 550L257 550L257 487L300 487L300 505L343 505L343 424L386 424L386 550L429 550L429 469L471 469L471 586L514 586L514 559L557 559L557 523L600 523L600 478L600 368L600 314L557 314L557 359L514 359L514 314L471 314L471 260L429 260L429 386L386 386L386 251L343 251L343 269L300 269L300 278L257 278L257 314L214 314L214 368L171 368L171 269L129 269L129 332L86 332L86 368L43 368L43 278L0 278Z" fill="#9a537f"></path><path d="M0 658L43 658L43 649L86 649L86 613L129 613L129 676L171 676L171 757L214 757L214 631L257 631L257 604L300 604L300 604L343 604L343 577L386 577L386 676L429 676L429 559L471 559L471 703L514 703L514 640L557 640L557 604L600 604L600 631L600 476L600 521L557 521L557 557L514 557L514 584L471 584L471 467L429 467L429 548L386 548L386 422L343 422L343 503L300 503L300 485L257 485L257 548L214 548L214 611L171 611L171 584L129 584L129 485L86 485L86 521L43 521L43 512L0 512Z" fill="#745379"></path><path d="M0 811L43 811L43 856L86 856L86 820L129 820L129 811L171 811L171 865L214 865L214 793L257 793L257 838L300 838L300 820L343 820L343 820L386 820L386 865L429 865L429 811L471 811L471 847L514 847L514 847L557 847L557 847L600 847L600 865L600 629L600 602L557 602L557 638L514 638L514 701L471 701L471 557L429 557L429 674L386 674L386 575L343 575L343 602L300 602L300 602L257 602L257 629L214 629L214 755L171 755L171 674L129 674L129 611L86 611L86 647L43 647L43 656L0 656Z" fill="#575067"></path><path d="M0 901L43 901L43 901L86 901L86 901L129 901L129 901L171 901L171 901L214 901L214 901L257 901L257 901L300 901L300 901L343 901L343 901L386 901L386 901L429 901L429 901L471 901L471 901L514 901L514 901L557 901L557 901L600 901L600 901L600 863L600 845L557 845L557 845L514 845L514 845L471 845L471 809L429 809L429 863L386 863L386 818L343 818L343 818L300 818L300 836L257 836L257 791L214 791L214 863L171 863L171 809L129 809L129 818L86 818L86 854L43 854L43 809L0 809Z" fill="#47484e"></path></svg>